<svg xmlns="http://www.w3.org/2000/svg" viewBox="0 0 100 100">
  <path d="M20 65 L20 52 Q20 46 26 46 L74 46 Q80 46 80 52 L80 65 Q80 72 74 72 L26 72 Q20 72 20 65 Z" fill="none" stroke="currentColor" stroke-width="2.5" stroke-linejoin="round"/>
  <path d="M24 56 Q32 52 40 56 Q48 60 56 56 Q64 52 72 56 Q76 58 76 56" stroke="currentColor" stroke-width="2" fill="none" stroke-linecap="round"/>
  <path d="M24 62 Q32 58 40 62 Q48 66 56 62 Q64 58 72 62 Q76 64 76 62" stroke="currentColor" stroke-width="2" fill="none" stroke-linecap="round"/>
  <circle cx="35" cy="32" r="3" fill="none" stroke="currentColor" stroke-width="2"/>
  <circle cx="50" cy="24" r="4" fill="none" stroke="currentColor" stroke-width="2"/>
  <circle cx="65" cy="32" r="3" fill="none" stroke="currentColor" stroke-width="2"/>
</svg>
